<?xml version="1.0" encoding="utf-8"?>
<!-- Generator: Adobe Illustrator 27.0.1, SVG Export Plug-In . SVG Version: 6.00 Build 0)  -->
<svg version="1.1" id="Layer_1" xmlns:serif="http://www.serif.com/"
	 xmlns="http://www.w3.org/2000/svg" xmlns:xlink="http://www.w3.org/1999/xlink" x="0px" y="0px" viewBox="0 0 612 116"
	 style="enable-background:new 0 0 612 116;" xml:space="preserve">
<style type="text/css">
	.st0{fill:#FFFFFF;}
</style>
<g transform="matrix(1,0,0,1,-61,-25)">
	<path class="st0" d="M68.6,58.1c-1.9,0.5-3.5,1.3-4.5,2.4l0,0h-3v-2.4L68.6,58.1L68.6,58.1z"/>
	<path class="st0" d="M63.8,60.8c-0.6,0.7-0.9,1.6-1,2.5h-1.7v-2.5H63.8L63.8,60.8z"/>
	<path class="st0" d="M185.1,75.5c0,11-10.1,12.2-14.5,12.2c-6.4,0-9.9-3.5-10.4-6c-0.2-0.9,0.1-1.7,0.7-2.1
		c-0.3,0.9,0.1,1.9,0.9,2.8c1.6,1.7,4.9,3,8.3,3c1.4,0,2.8-0.2,4.1-0.7c3.2-1.1,8.3-4,7.2-11c-1.5-8.1-11.2-13.4-24.7-13.4H74.6
		c-2.7,0-5.6,1.4-5.9,2.8h-5.2c0.1-0.9,0.5-1.7,1.1-2.4c1.6-1.8,4.9-2.8,9.1-2.8h83c6.2,0,11.9,1,16.5,2.9c2,0.8,3.7,1.7,5.3,2.8
		l0,0C182.8,66.8,185.1,70.9,185.1,75.5L185.1,75.5z"/>
	<path class="st0" d="M174.2,84.6c-4.6,1.6-9.8,0.1-12-2.2c-0.8-0.9-1.1-1.8-0.9-2.6c0.9,1.7,3.5,3,6.8,3.3c3.4,0.3,7.8-0.7,9.7-4.3
		c1.1-2,1-4.4-0.1-6.6c-2.9-5.6-10.7-8.9-20.9-8.9H69.1c0.4-1.1,2.9-2.5,5.6-2.5h82.2c13.3,0,22.9,5.1,24.4,13.1
		C182.3,80.7,177.3,83.5,174.2,84.6L174.2,84.6z"/>
	<path class="st0" d="M203.1,76.3c-1.4,5.3-5.5,8.9-12.1,10.3c6.6-3.1,10.2-8.7,9.2-14.9c-0.9-5.5-5.7-11.5-14.6-13.5
		c6.7,0.5,11.5,2.3,14.4,5.6c1.2,1.3,2.1,2.7,2.7,4.4C203.6,70.8,203.7,73.6,203.1,76.3L203.1,76.3z"/>
	<path class="st0" d="M190.7,86.4c4.7-3.6,6.8-9.1,5.8-14.9c-1.1-6-5.5-10.8-12-13.2c9.3,1.7,14.4,7.8,15.3,13.4
		C200.5,76.6,198.5,82.9,190.7,86.4z"/>
	<path class="st0" d="M187.7,60.5h-13.8c-0.1,0-0.2-0.1-0.3-0.1c-2.6-1.1-5.6-1.8-8.8-2.3h16.9C183.9,58.6,185.9,59.4,187.7,60.5z"
		/>
	<path class="st0" d="M191.3,63.2h-12.3c-1.3-0.9-2.8-1.8-4.4-2.5h13.6C189.3,61.5,190.3,62.3,191.3,63.2z"/>
	<path class="st0" d="M265.4,58.1v2.4h-49c-1.6-1.2-3.5-2-5.8-2.4H265.4z"/>
	<path class="st0" d="M265.4,60.8v2.5h-46.3c-0.7-0.9-1.4-1.8-2.3-2.5H265.4L265.4,60.8z"/>
	<path class="st0" d="M220.7,76.7c-1.4,5.3-5,8.7-10.4,9.9c6.9-3.4,9.2-10.3,8.3-15.9c-0.7-4.9-4.1-10.5-11.2-12.5
		c7.5,0.7,11.9,4.1,13.4,10.4C221.5,71.2,221.4,74,220.7,76.7L220.7,76.7z"/>
	<path class="st0" d="M210.3,86.2c4.2-3.6,6.3-9.5,5.4-15.4c-0.4-2.7-1.4-5.2-2.9-7.3l0,0c0-0.1-0.1-0.1-0.1-0.2h0
		c-1.5-2.2-3.6-3.9-6-5.1c7.6,1.7,11.1,7.4,11.8,12.4C219.2,76.2,217,82.9,210.3,86.2L210.3,86.2z"/>
	<path class="st0" d="M211.8,63.2h-11.5c-0.9-0.9-1.9-1.7-3.1-2.5h12.2C210.3,61.5,211.1,62.3,211.8,63.2z"/>
	<path class="st0" d="M209.1,60.5h-12.3c-2-1.1-4.4-1.9-7.2-2.4h15.2C206.3,58.7,207.8,59.5,209.1,60.5L209.1,60.5z"/>
	<path class="st0" d="M265.4,87.1H226c7.9-3.7,9.7-10.3,6.2-15.8C244.2,76.1,255.4,81.4,265.4,87.1z M236.7,76.3
		c1.5,3.2,0.2,5.9-2.4,8.3C238.3,83.9,240.3,78.5,236.7,76.3z M242.7,78.8c1.5,2.6,0.3,5-2.4,6.6C244.2,85.7,246.3,80.5,242.7,78.8z
		 M246.6,83.7l10.1,1.6l-9.7-2.7L246.6,83.7z"/>
	<path class="st0" d="M258,98.7c1.9-0.5,3.5-1.3,4.5-2.4l0,0h3v2.4L258,98.7L258,98.7z"/>
	<path class="st0" d="M262.8,96c0.6-0.7,0.9-1.6,1-2.5h1.7V96H262.8L262.8,96z"/>
	<path class="st0" d="M141.5,81.3c0-11,10.1-12.2,14.5-12.2c6.4,0,9.9,3.5,10.4,6c0.2,0.9-0.1,1.7-0.7,2.1c0.3-0.9-0.1-1.9-0.9-2.8
		c-1.6-1.7-4.9-3-8.3-3c-1.4,0-2.8,0.2-4.1,0.7c-3.2,1.1-8.3,4-7.2,11c1.5,8.1,11.2,13.4,24.7,13.4h82.2c2.7,0,5.6-1.4,5.9-2.8h5.2
		c-0.1,0.9-0.5,1.7-1.1,2.4c-1.6,1.8-4.9,2.8-9.1,2.8h-83c-6.2,0-11.9-1-16.5-2.9c-2-0.8-3.7-1.7-5.3-2.8l0,0
		C143.7,90,141.5,85.9,141.5,81.3L141.5,81.3z"/>
	<path class="st0" d="M152.3,72.2c4.6-1.6,9.8-0.1,12,2.2c0.8,0.9,1.1,1.8,0.9,2.6c-0.9-1.7-3.5-3-6.8-3.3c-3.4-0.3-7.8,0.7-9.7,4.3
		c-1.1,2-1,4.4,0.1,6.6c2.9,5.6,10.7,8.9,20.9,8.9h87.7c-0.4,1.1-2.9,2.5-5.6,2.5h-82.2c-13.3,0-22.9-5.1-24.4-13.1
		C144.3,76.1,149.3,73.3,152.3,72.2L152.3,72.2z"/>
	<path class="st0" d="M123.5,80.5c1.4-5.3,5.5-8.9,12.1-10.3c-6.6,3.1-10.2,8.7-9.2,14.9c0.9,5.5,5.7,11.5,14.6,13.5
		c-6.7-0.5-11.5-2.3-14.4-5.6c-1.2-1.3-2.1-2.7-2.7-4.4C123,86,122.8,83.2,123.5,80.5z"/>
	<path class="st0" d="M135.9,70.4c-4.7,3.6-6.8,9.1-5.8,14.9c1.1,6,5.5,10.8,12,13.2c-9.3-1.7-14.4-7.8-15.3-13.4
		C126,80.2,128,73.9,135.9,70.4L135.9,70.4z"/>
	<path class="st0" d="M138.9,96.3h13.8c0.1,0,0.2,0.1,0.3,0.1c2.6,1.1,5.6,1.8,8.8,2.3h-16.9C142.6,98.2,140.6,97.4,138.9,96.3z"/>
	<path class="st0" d="M135.3,93.5h12.3c1.3,0.9,2.8,1.8,4.4,2.5h-13.6C137.2,95.3,136.2,94.5,135.3,93.5z"/>
	<path class="st0" d="M61.1,98.7v-2.4h49c1.6,1.2,3.5,2,5.8,2.4H61.1z"/>
	<path class="st0" d="M61.1,96v-2.5h46.3c0.6,0.9,1.4,1.8,2.3,2.5H61.1z"/>
	<path class="st0" d="M105.8,80.1c1.4-5.3,5-8.7,10.4-9.9c-6.9,3.4-9.2,10.3-8.3,15.9c0.7,4.9,4.1,10.5,11.2,12.5
		c-7.5-0.7-11.9-4.1-13.4-10.4C105.1,85.6,105.1,82.8,105.8,80.1L105.8,80.1z"/>
	<path class="st0" d="M116.3,70.6c-4.2,3.6-6.3,9.5-5.4,15.4c0.4,2.7,1.4,5.2,2.9,7.3l0,0v0c0,0.1,0.1,0.1,0.1,0.2l0,0
		c1.5,2.1,3.6,3.9,6,5.1c-7.6-1.7-11.1-7.4-11.8-12.4C107.3,80.6,109.6,73.9,116.3,70.6L116.3,70.6z"/>
	<path class="st0" d="M114.7,93.5h11.5c0.9,0.9,1.9,1.7,3,2.5h-12.2C116.2,95.3,115.4,94.4,114.7,93.5z"/>
	<path class="st0" d="M117.5,96.3h12.3c2,1.1,4.4,1.9,7.2,2.4h-15.2C120.2,98.1,118.7,97.3,117.5,96.3z"/>
	<path class="st0" d="M94.3,85.5c-12-4.9-23.2-10.1-33.2-15.8h39.4C92.6,73.3,90.8,80,94.3,85.5z M80,73.1l-10.1-1.6l9.7,2.7
		L80,73.1L80,73.1z M86.3,71.4c-3.9-0.3-6,5-2.4,6.6C82.4,75.3,83.5,73,86.3,71.4z M92.2,72.2c-4,0.7-6,6.1-2.4,8.3
		C88.3,77.4,89.6,74.6,92.2,72.2z"/>
</g>
<g transform="matrix(1,0,0,1,-61,-25)">
	<path class="st0" d="M272.3,58.1c-1.9,0.5-3.5,1.3-4.5,2.4l0,0h-3v-2.4L272.3,58.1L272.3,58.1z"/>
	<path class="st0" d="M267.5,60.8c-0.6,0.7-0.9,1.6-1,2.5h-1.7v-2.5H267.5L267.5,60.8z"/>
	<path class="st0" d="M388.8,75.5c0,11-10.1,12.2-14.5,12.2c-6.4,0-9.9-3.5-10.4-6c-0.2-0.9,0.1-1.7,0.7-2.1
		c-0.3,0.9,0.1,1.9,0.9,2.8c1.6,1.7,4.9,3,8.3,3c1.4,0,2.8-0.2,4.1-0.7c3.2-1.1,8.3-4,7.2-11c-1.5-8.1-11.2-13.4-24.7-13.4h-82.2
		c-2.7,0-5.6,1.4-5.9,2.8h-5.2c0.1-0.9,0.5-1.7,1.1-2.4c1.6-1.8,4.9-2.8,9.1-2.8h83c6.2,0,11.9,1,16.5,2.9c2,0.8,3.7,1.7,5.3,2.8
		l0,0C386.6,66.8,388.8,70.9,388.8,75.5L388.8,75.5z"/>
	<path class="st0" d="M377.9,84.6c-4.6,1.6-9.8,0.1-12-2.2c-0.8-0.9-1.1-1.8-0.9-2.6c0.9,1.7,3.5,3,6.8,3.3c3.4,0.3,7.8-0.7,9.7-4.3
		c1.1-2,1-4.4-0.1-6.6c-2.9-5.6-10.7-8.9-20.9-8.9h-87.7c0.4-1.1,2.9-2.5,5.6-2.5h82.2c13.3,0,22.9,5.1,24.4,13.1
		C386,80.7,381,83.5,377.9,84.6L377.9,84.6z"/>
	<path class="st0" d="M406.8,76.3c-1.4,5.3-5.5,8.9-12.1,10.3c6.6-3.1,10.2-8.7,9.2-14.9c-0.9-5.5-5.7-11.5-14.6-13.5
		c6.7,0.5,11.5,2.3,14.4,5.6c1.2,1.3,2.1,2.7,2.7,4.4C407.3,70.8,407.5,73.6,406.8,76.3L406.8,76.3z"/>
	<path class="st0" d="M394.4,86.4c4.7-3.6,6.8-9.1,5.8-14.9c-1.1-6-5.5-10.8-12-13.2c9.3,1.7,14.4,7.8,15.3,13.4
		C404.3,76.6,402.2,82.9,394.4,86.4z"/>
	<path class="st0" d="M391.4,60.5h-13.8c-0.1,0-0.2-0.1-0.3-0.1c-2.6-1.1-5.6-1.8-8.8-2.3h16.9C387.6,58.6,389.7,59.4,391.4,60.5z"
		/>
	<path class="st0" d="M395,63.2h-12.3c-1.3-0.9-2.8-1.8-4.4-2.5h13.6C393.1,61.5,394.1,62.3,395,63.2z"/>
	<path class="st0" d="M469.2,58.1v2.4h-49c-1.6-1.2-3.5-2-5.8-2.4H469.2z"/>
	<path class="st0" d="M469.2,60.8v2.5h-46.3c-0.7-0.9-1.4-1.8-2.3-2.5H469.2L469.2,60.8z"/>
	<path class="st0" d="M424.5,76.7c-1.4,5.3-5,8.7-10.4,9.9c6.9-3.4,9.2-10.3,8.3-15.9c-0.7-4.9-4.1-10.5-11.2-12.5
		c7.5,0.7,11.9,4.1,13.4,10.4C425.2,71.2,425.2,74,424.5,76.7L424.5,76.7z"/>
	<path class="st0" d="M414,86.2c4.2-3.6,6.3-9.5,5.4-15.4c-0.4-2.7-1.4-5.2-2.9-7.3l0,0c0-0.1-0.1-0.1-0.1-0.2h0
		c-1.5-2.2-3.6-3.9-6-5.1c7.6,1.7,11.1,7.4,11.8,12.4C422.9,76.2,420.7,82.9,414,86.2L414,86.2z"/>
	<path class="st0" d="M415.5,63.2h-11.5c-0.9-0.9-1.9-1.7-3.1-2.5h12.2C414.1,61.5,414.9,62.3,415.5,63.2z"/>
	<path class="st0" d="M412.8,60.5h-12.3c-2-1.1-4.4-1.9-7.2-2.4h15.2C410.1,58.7,411.5,59.5,412.8,60.5L412.8,60.5z"/>
	<path class="st0" d="M469.2,87.1h-39.4c7.9-3.7,9.7-10.3,6.2-15.8C448,76.1,459.1,81.4,469.2,87.1z M440.5,76.3
		c1.5,3.2,0.2,5.9-2.4,8.3C442.1,83.9,444,78.5,440.5,76.3z M446.4,78.8c1.5,2.6,0.3,5-2.4,6.6C448,85.7,450.1,80.5,446.4,78.8z
		 M450.3,83.7l10.1,1.6l-9.7-2.7L450.3,83.7z"/>
	<path class="st0" d="M461.7,98.7c1.9-0.5,3.5-1.3,4.5-2.4l0,0h3v2.4L461.7,98.7L461.7,98.7z"/>
	<path class="st0" d="M466.5,96c0.6-0.7,0.9-1.6,1-2.5h1.7V96H466.5L466.5,96z"/>
	<path class="st0" d="M345.2,81.3c0-11,10.1-12.2,14.5-12.2c6.4,0,9.9,3.5,10.4,6c0.2,0.9-0.1,1.7-0.7,2.1c0.3-0.9-0.1-1.9-0.9-2.8
		c-1.6-1.7-4.9-3-8.3-3c-1.4,0-2.8,0.2-4.1,0.7c-3.2,1.1-8.3,4-7.2,11c1.5,8.1,11.2,13.4,24.7,13.4h82.2c2.7,0,5.6-1.4,5.9-2.8h5.2
		c-0.1,0.9-0.5,1.7-1.1,2.4c-1.6,1.8-4.9,2.8-9.1,2.8h-83c-6.2,0-11.9-1-16.5-2.9c-2-0.8-3.7-1.7-5.3-2.8l0,0
		C347.4,90,345.2,85.9,345.2,81.3L345.2,81.3z"/>
	<path class="st0" d="M356.1,72.2c4.6-1.6,9.8-0.1,12,2.2c0.8,0.9,1.1,1.8,0.9,2.6c-0.9-1.7-3.5-3-6.8-3.3c-3.4-0.3-7.8,0.7-9.7,4.3
		c-1.1,2-1,4.4,0.1,6.6c2.9,5.6,10.7,8.9,20.9,8.9h87.7c-0.4,1.1-2.9,2.5-5.6,2.5h-82.2c-13.3,0-22.9-5.1-24.4-13.1
		C348,76.1,353,73.3,356.1,72.2L356.1,72.2z"/>
	<path class="st0" d="M327.2,80.5c1.4-5.3,5.5-8.9,12.1-10.3c-6.6,3.1-10.2,8.7-9.2,14.9c0.9,5.5,5.7,11.5,14.6,13.5
		c-6.7-0.5-11.5-2.3-14.4-5.6c-1.2-1.3-2.1-2.7-2.7-4.4C326.7,86,326.5,83.2,327.2,80.5z"/>
	<path class="st0" d="M339.6,70.4c-4.7,3.6-6.8,9.1-5.8,14.9c1.1,6,5.5,10.8,12,13.2c-9.3-1.7-14.4-7.8-15.3-13.4
		C329.7,80.2,331.8,73.9,339.6,70.4L339.6,70.4z"/>
	<path class="st0" d="M342.6,96.3h13.8c0.1,0,0.2,0.1,0.3,0.1c2.6,1.1,5.6,1.8,8.8,2.3h-16.9C346.4,98.2,344.4,97.4,342.6,96.3z"/>
	<path class="st0" d="M339,93.5h12.3c1.3,0.9,2.8,1.8,4.4,2.5h-13.6C341,95.3,339.9,94.5,339,93.5z"/>
	<path class="st0" d="M264.8,98.7v-2.4h49c1.6,1.2,3.5,2,5.8,2.4H264.8z"/>
	<path class="st0" d="M264.8,96v-2.5h46.3c0.6,0.9,1.4,1.8,2.3,2.5H264.8L264.8,96z"/>
	<path class="st0" d="M309.5,80.1c1.4-5.3,5-8.7,10.4-9.9c-6.9,3.4-9.2,10.3-8.3,15.9c0.7,4.9,4.1,10.5,11.2,12.5
		c-7.5-0.7-11.9-4.1-13.4-10.4C308.8,85.6,308.8,82.8,309.5,80.1L309.5,80.1z"/>
	<path class="st0" d="M320,70.6c-4.2,3.6-6.3,9.5-5.4,15.4c0.4,2.7,1.4,5.2,2.9,7.3l0,0v0c0,0.1,0.1,0.1,0.1,0.2l0,0
		c1.5,2.1,3.6,3.9,6,5.1c-7.6-1.7-11.1-7.4-11.8-12.4C311.1,80.6,313.3,73.9,320,70.6L320,70.6z"/>
	<path class="st0" d="M318.5,93.5h11.5c0.9,0.9,1.9,1.7,3,2.5h-12.2C319.9,95.3,319.2,94.4,318.5,93.5z"/>
	<path class="st0" d="M321.2,96.3h12.3c2,1.1,4.4,1.9,7.2,2.4h-15.2C323.9,98.1,322.5,97.3,321.2,96.3z"/>
	<path class="st0" d="M298.1,85.5c-12-4.9-23.2-10.1-33.2-15.8h39.4C296.4,73.3,294.6,80,298.1,85.5z M283.7,73.1l-10.1-1.6l9.7,2.7
		L283.7,73.1L283.7,73.1z M290,71.4c-3.9-0.3-6,5-2.4,6.6C286.1,75.3,287.3,73,290,71.4z M296,72.2c-4,0.7-6,6.1-2.4,8.3
		C292.1,77.4,293.4,74.6,296,72.2z"/>
</g>
<g transform="matrix(1,0,0,1,-61,-25)">
	<path class="st0" d="M476,58.1c-1.9,0.5-3.5,1.3-4.5,2.4l0,0h-3v-2.4L476,58.1L476,58.1z"/>
	<path class="st0" d="M471.2,60.8c-0.6,0.7-0.9,1.6-1,2.5h-1.7v-2.5H471.2L471.2,60.8z"/>
	<path class="st0" d="M592.5,75.5c0,11-10.1,12.2-14.5,12.2c-6.4,0-9.9-3.5-10.4-6c-0.2-0.9,0.1-1.7,0.7-2.1
		c-0.3,0.9,0.1,1.9,0.9,2.8c1.6,1.7,4.9,3,8.3,3c1.4,0,2.8-0.2,4.1-0.7c3.2-1.1,8.3-4,7.2-11c-1.5-8.1-11.2-13.4-24.7-13.4h-82.2
		c-2.7,0-5.6,1.4-5.9,2.8h-5.2c0.1-0.9,0.5-1.7,1.1-2.4c1.6-1.8,4.9-2.8,9.1-2.8h83c6.2,0,11.9,1,16.5,2.9c2,0.8,3.7,1.7,5.3,2.8
		l0,0C590.3,66.8,592.5,70.9,592.5,75.5L592.5,75.5z"/>
	<path class="st0" d="M581.7,84.6c-4.6,1.6-9.8,0.1-12-2.2c-0.8-0.9-1.1-1.8-0.9-2.6c0.9,1.7,3.5,3,6.8,3.3c3.4,0.3,7.8-0.7,9.7-4.3
		c1.1-2,1-4.4-0.1-6.6c-2.9-5.6-10.7-8.9-20.9-8.9h-87.7c0.4-1.1,2.9-2.5,5.6-2.5h82.2c13.3,0,22.9,5.1,24.4,13.1
		C589.7,80.7,584.7,83.5,581.7,84.6L581.7,84.6z"/>
	<path class="st0" d="M610.5,76.3c-1.4,5.3-5.5,8.9-12.1,10.3c6.6-3.1,10.2-8.7,9.2-14.9c-0.9-5.5-5.7-11.5-14.6-13.5
		c6.7,0.5,11.5,2.3,14.4,5.6c1.2,1.3,2.1,2.7,2.7,4.4C611,70.8,611.2,73.6,610.5,76.3L610.5,76.3z"/>
	<path class="st0" d="M598.1,86.4c4.7-3.6,6.8-9.1,5.8-14.9c-1.1-6-5.5-10.8-12-13.2c9.3,1.7,14.4,7.8,15.3,13.4
		C608,76.6,605.9,82.9,598.1,86.4z"/>
	<path class="st0" d="M595.1,60.5h-13.8c-0.1,0-0.2-0.1-0.3-0.1c-2.6-1.1-5.6-1.8-8.8-2.3h16.9C591.4,58.6,593.4,59.4,595.1,60.5z"
		/>
	<path class="st0" d="M598.7,63.2h-12.3c-1.3-0.9-2.8-1.8-4.4-2.5h13.6C596.8,61.5,597.8,62.3,598.7,63.2z"/>
	<path class="st0" d="M672.9,58.1v2.4h-49c-1.6-1.2-3.5-2-5.8-2.4H672.9z"/>
	<path class="st0" d="M672.9,60.8v2.5h-46.3c-0.7-0.9-1.4-1.8-2.3-2.5H672.9L672.9,60.8z"/>
	<path class="st0" d="M628.2,76.7c-1.4,5.3-5,8.7-10.4,9.9c6.9-3.4,9.2-10.3,8.3-15.9c-0.7-4.9-4.1-10.5-11.2-12.5
		c7.5,0.7,11.9,4.1,13.4,10.4C628.9,71.2,628.9,74,628.2,76.7L628.2,76.7z"/>
	<path class="st0" d="M617.7,86.2c4.2-3.6,6.3-9.5,5.4-15.4c-0.4-2.7-1.4-5.2-2.9-7.3l0,0c0-0.1-0.1-0.1-0.1-0.2h0
		c-1.5-2.2-3.6-3.9-6-5.1c7.6,1.7,11.1,7.4,11.8,12.4C626.6,76.2,624.4,82.9,617.7,86.2L617.7,86.2z"/>
	<path class="st0" d="M619.3,63.2h-11.5c-0.9-0.9-1.9-1.7-3.1-2.5h12.2C617.8,61.5,618.6,62.3,619.3,63.2z"/>
	<path class="st0" d="M616.5,60.5h-12.3c-2-1.1-4.4-1.9-7.2-2.4h15.2C613.8,58.7,615.3,59.5,616.5,60.5L616.5,60.5z"/>
	<path class="st0" d="M672.9,87.1h-39.4c7.9-3.7,9.7-10.3,6.2-15.8C651.7,76.1,662.8,81.4,672.9,87.1z M644.2,76.3
		c1.5,3.2,0.2,5.9-2.4,8.3C645.8,83.9,647.8,78.5,644.2,76.3z M650.1,78.8c1.5,2.6,0.3,5-2.4,6.6C651.7,85.7,653.8,80.5,650.1,78.8z
		 M654,83.7l10.1,1.6l-9.7-2.7L654,83.7z"/>
	<path class="st0" d="M665.4,98.7c1.9-0.5,3.5-1.3,4.5-2.4l0,0h3v2.4L665.4,98.7L665.4,98.7z"/>
	<path class="st0" d="M670.2,96c0.6-0.7,0.9-1.6,1-2.5h1.7V96H670.2L670.2,96z"/>
	<path class="st0" d="M548.9,81.3c0-11,10.1-12.2,14.5-12.2c6.4,0,9.9,3.5,10.4,6c0.2,0.9-0.1,1.7-0.7,2.1c0.3-0.9-0.1-1.9-0.9-2.8
		c-1.6-1.7-4.9-3-8.3-3c-1.4,0-2.8,0.2-4.1,0.7c-3.2,1.1-8.3,4-7.2,11c1.5,8.1,11.2,13.4,24.7,13.4h82.2c2.7,0,5.6-1.4,5.9-2.8h5.2
		c-0.1,0.9-0.5,1.7-1.1,2.4c-1.6,1.8-4.9,2.8-9.1,2.8h-83c-6.2,0-11.9-1-16.5-2.9c-2-0.8-3.7-1.7-5.3-2.8l0,0
		C551.2,90,548.9,85.9,548.9,81.3L548.9,81.3z"/>
	<path class="st0" d="M559.8,72.2c4.6-1.6,9.8-0.1,12,2.2c0.8,0.9,1.1,1.8,0.9,2.6c-0.9-1.7-3.5-3-6.8-3.3c-3.4-0.3-7.8,0.7-9.7,4.3
		c-1.1,2-1,4.4,0.1,6.6c2.9,5.6,10.7,8.9,20.9,8.9h87.7c-0.4,1.1-2.9,2.5-5.6,2.5h-82.2c-13.3,0-22.9-5.1-24.4-13.1
		C551.7,76.1,556.7,73.3,559.8,72.2L559.8,72.2z"/>
	<path class="st0" d="M530.9,80.5c1.4-5.3,5.5-8.9,12.1-10.3c-6.6,3.1-10.2,8.7-9.2,14.9c0.9,5.5,5.7,11.5,14.6,13.5
		c-6.7-0.5-11.5-2.3-14.4-5.6c-1.2-1.3-2.1-2.7-2.7-4.4C530.4,86,530.3,83.2,530.9,80.5z"/>
	<path class="st0" d="M543.3,70.4c-4.7,3.6-6.8,9.1-5.8,14.9c1.1,6,5.5,10.8,12,13.2c-9.3-1.7-14.4-7.8-15.3-13.4
		C533.4,80.2,535.5,73.9,543.3,70.4L543.3,70.4z"/>
	<path class="st0" d="M546.3,96.3h13.8c0.1,0,0.2,0.1,0.3,0.1c2.6,1.1,5.6,1.8,8.8,2.3h-16.9C550.1,98.2,548.1,97.4,546.3,96.3z"/>
	<path class="st0" d="M542.7,93.5H555c1.3,0.9,2.8,1.8,4.4,2.5h-13.6C544.7,95.3,543.6,94.5,542.7,93.5z"/>
	<path class="st0" d="M468.5,98.7v-2.4h49c1.6,1.2,3.5,2,5.8,2.4H468.5z"/>
	<path class="st0" d="M468.5,96v-2.5h46.3c0.6,0.9,1.4,1.8,2.3,2.5H468.5L468.5,96z"/>
	<path class="st0" d="M513.2,80.1c1.4-5.3,5-8.7,10.4-9.9c-6.9,3.4-9.2,10.3-8.3,15.9c0.7,4.9,4.1,10.5,11.2,12.5
		c-7.5-0.7-11.9-4.1-13.4-10.4C512.5,85.6,512.5,82.8,513.2,80.1L513.2,80.1z"/>
	<path class="st0" d="M523.7,70.6c-4.2,3.6-6.3,9.5-5.4,15.4c0.4,2.7,1.4,5.2,2.9,7.3l0,0v0c0,0.1,0.1,0.1,0.1,0.2l0,0
		c1.5,2.1,3.6,3.9,6,5.1c-7.6-1.7-11.1-7.4-11.8-12.4C514.8,80.6,517,73.9,523.7,70.6L523.7,70.6z"/>
	<path class="st0" d="M522.2,93.5h11.5c0.9,0.9,1.9,1.7,3,2.5h-12.2C523.6,95.3,522.9,94.4,522.2,93.5z"/>
	<path class="st0" d="M524.9,96.3h12.3c2,1.1,4.4,1.9,7.2,2.4h-15.2C527.7,98.1,526.2,97.3,524.9,96.3z"/>
	<path class="st0" d="M501.8,85.5c-12-4.9-23.2-10.1-33.2-15.8H508C500.1,73.3,498.3,80,501.8,85.5z M487.4,73.1l-10.1-1.6l9.7,2.7
		L487.4,73.1L487.4,73.1z M493.7,71.4c-3.9-0.3-6,5-2.4,6.6C489.8,75.3,491,73,493.7,71.4z M499.7,72.2c-4,0.7-6,6.1-2.4,8.3
		C495.8,77.4,497.1,74.6,499.7,72.2z"/>
</g>
</svg>
