<?xml version="1.0" encoding="UTF-8" standalone="no"?>
<!DOCTYPE svg PUBLIC "-//W3C//DTD SVG 1.1//EN" "http://www.w3.org/Graphics/SVG/1.1/DTD/svg11.dtd">
<svg width="100%" height="100%" viewBox="0 0 781 58" version="1.1" xmlns="http://www.w3.org/2000/svg" xmlns:xlink="http://www.w3.org/1999/xlink" xml:space="preserve" xmlns:serif="http://www.serif.com/" style="fill-rule:evenodd;clip-rule:evenodd;stroke-linejoin:round;stroke-miterlimit:2;">
    <g transform="matrix(1,0,0,1,-61,-25)">
        <path d="M70.14,28.69C67.67,29.33 65.72,30.36 64.46,31.76L64.42,31.81L60.63,31.81L60.63,28.7L70.14,28.7L70.14,28.69Z" style="fill:white;fill-rule:nonzero;"/>
        <path d="M64.07,32.18C63.33,33.12 62.9,34.19 62.83,35.31L60.64,35.31L60.64,32.18L64.08,32.18L64.07,32.18Z" style="fill:white;fill-rule:nonzero;"/>
        <path d="M218.83,50.99C218.83,65.01 205.9,66.53 200.34,66.53C192.11,66.53 187.65,62.08 187.13,58.92C186.92,57.72 187.25,56.79 188.06,56.28C187.71,57.42 188.13,58.69 189.27,59.89C191.36,62.07 195.48,63.71 199.87,63.71C201.61,63.71 203.4,63.45 205.13,62.87C209.17,61.49 215.75,57.82 214.34,48.86C212.41,38.5 200.02,31.8 182.77,31.8L77.89,31.8C74.43,31.8 70.8,33.53 70.34,35.31L63.69,35.31C63.78,34.19 64.27,33.15 65.13,32.23C67.2,29.94 71.34,28.69 76.78,28.69L182.74,28.69C190.62,28.69 197.92,29.95 203.83,32.34C206.34,33.35 208.6,34.57 210.53,35.96L210.57,35.99C215.97,39.87 218.82,45.06 218.82,50.99L218.83,50.99Z" style="fill:white;fill-rule:nonzero;"/>
        <path d="M204.97,62.5C199.09,64.53 192.42,62.59 189.6,59.65C188.53,58.51 188.14,57.38 188.51,56.35C189.65,58.56 193,60.22 197.13,60.54C201.5,60.91 207.04,59.65 209.57,55.11C210.96,52.62 210.89,49.54 209.4,46.64C205.72,39.55 195.77,35.32 182.76,35.32L70.79,35.32C71.28,33.86 74.49,32.19 77.9,32.19L182.78,32.19C199.8,32.19 212.03,38.76 213.93,48.93C215.28,57.63 208.89,61.17 204.98,62.51L204.97,62.5Z" style="fill:white;fill-rule:nonzero;"/>
        <path d="M241.8,51.91C240.06,58.72 234.73,63.25 226.32,65.1C234.74,61.2 239.29,53.96 238.01,46.05C236.87,38.98 230.71,31.38 219.34,28.84C227.85,29.45 233.96,31.82 237.76,35.96C239.25,37.57 240.39,39.46 241.2,41.61C242.45,45 242.66,48.56 241.8,51.92L241.8,51.91Z" style="fill:white;fill-rule:nonzero;"/>
        <path d="M225.97,64.85C231.92,60.28 234.71,53.21 233.34,45.86C231.88,38.16 226.29,32.02 218.04,28.98C229.97,31.19 236.43,38.92 237.59,46.12C238.59,52.41 235.96,60.39 225.97,64.85Z" style="fill:white;fill-rule:nonzero;"/>
        <path d="M222.16,31.8L204.57,31.8C204.47,31.74 204.34,31.69 204.22,31.65C200.87,30.3 197.08,29.29 193.01,28.69L214.56,28.69C217.35,29.41 219.91,30.45 222.16,31.8Z" style="fill:white;fill-rule:nonzero;"/>
        <path d="M226.75,35.31L211.02,35.31C209.37,34.13 207.49,33.07 205.44,32.18L222.78,32.18C224.25,33.09 225.57,34.14 226.75,35.31Z" style="fill:white;fill-rule:nonzero;"/>
        <path d="M321.41,28.69L321.41,31.8L258.86,31.8C256.84,30.33 254.39,29.3 251.47,28.69L321.41,28.69Z" style="fill:white;fill-rule:nonzero;"/>
        <path d="M321.41,32.18L321.41,35.31L262.37,35.31C261.54,34.11 260.54,33.07 259.39,32.18L321.42,32.18L321.41,32.18Z" style="fill:white;fill-rule:nonzero;"/>
        <path d="M264.36,52.42C262.55,59.17 257.99,63.5 251.11,65.05C259.9,60.69 262.83,51.92 261.76,44.72C260.81,38.42 256.55,31.31 247.42,28.79C256.98,29.62 262.56,33.96 264.49,42.03C265.3,45.48 265.26,49.07 264.35,52.42L264.36,52.42Z" style="fill:white;fill-rule:nonzero;"/>
        <path d="M250.99,64.65C256.32,60.03 258.97,52.55 257.83,44.97C257.32,41.5 256.06,38.37 254.15,35.7L254.13,35.65C254.08,35.54 254.02,35.47 253.96,35.39L253.94,35.39C251.97,32.64 249.34,30.42 246.22,28.9C255.89,31.08 260.36,38.35 261.33,44.76C262.38,51.8 259.52,60.38 251,64.64L250.99,64.65Z" style="fill:white;fill-rule:nonzero;"/>
        <path d="M252.96,35.31L238.33,35.31C237.21,34.11 235.91,33.08 234.43,32.18L249.96,32.18C251.08,33.12 252.08,34.16 252.96,35.31Z" style="fill:white;fill-rule:nonzero;"/>
        <path d="M249.48,31.8L233.74,31.8C231.18,30.36 228.11,29.33 224.49,28.69L243.93,28.69C245.97,29.46 247.84,30.5 249.47,31.8L249.48,31.8Z" style="fill:white;fill-rule:nonzero;"/>
        <path d="M321.41,65.79L271.09,65.79C281.16,61.11 283.48,52.61 279,45.57C294.35,51.77 308.58,58.47 321.41,65.79ZM284.74,51.97C286.69,55.99 285.02,59.53 281.7,62.54C286.79,61.67 289.33,54.73 284.74,51.97ZM292.34,55.21C294.25,58.59 292.78,61.58 289.32,63.59C294.32,64 297.02,57.27 292.34,55.21ZM297.36,61.39L310.2,63.37L297.78,59.9L297.36,61.39Z" style="fill:white;fill-rule:nonzero;"/>
        <path d="M311.9,80.61C314.37,79.97 316.32,78.94 317.59,77.54L317.62,77.49L321.41,77.49L321.41,80.6L311.9,80.6L311.9,80.61Z" style="fill:white;fill-rule:nonzero;"/>
        <path d="M317.97,77.11C318.71,76.17 319.15,75.1 319.21,73.98L321.4,73.98L321.4,77.11L317.96,77.11L317.97,77.11Z" style="fill:white;fill-rule:nonzero;"/>
        <path d="M163.21,58.3C163.21,44.28 176.14,42.76 181.7,42.76C189.93,42.76 194.39,47.21 194.91,50.37C195.12,51.57 194.79,52.5 193.98,53.01C194.33,51.87 193.91,50.6 192.77,49.4C190.68,47.22 186.56,45.58 182.17,45.58C180.43,45.58 178.64,45.84 176.91,46.42C172.87,47.8 166.29,51.47 167.7,60.43C169.63,70.79 182.02,77.49 199.27,77.49L304.15,77.49C307.61,77.49 311.24,75.76 311.69,73.98L318.34,73.98C318.25,75.1 317.76,76.14 316.9,77.06C314.83,79.35 310.69,80.6 305.25,80.6L199.28,80.6C191.4,80.6 184.1,79.34 178.19,76.95C175.68,75.94 173.42,74.73 171.49,73.33L171.45,73.3C166.05,69.42 163.2,64.23 163.2,58.3L163.21,58.3Z" style="fill:white;fill-rule:nonzero;"/>
        <path d="M177.07,46.79C182.95,44.77 189.62,46.7 192.44,49.64C193.51,50.78 193.9,51.91 193.53,52.94C192.39,50.73 189.04,49.07 184.91,48.75C180.54,48.38 175,49.64 172.47,54.18C171.08,56.67 171.15,59.75 172.65,62.65C176.33,69.74 186.28,73.97 199.29,73.97L311.26,73.97C310.77,75.43 307.56,77.1 304.15,77.1L199.27,77.1C182.25,77.1 170.02,70.53 168.12,60.36C166.77,51.66 173.16,48.12 177.07,46.78L177.07,46.79Z" style="fill:white;fill-rule:nonzero;"/>
        <path d="M140.24,57.38C141.98,50.57 147.31,46.04 155.72,44.19C147.3,48.09 142.75,55.33 144.03,63.25C145.17,70.32 151.33,77.92 162.7,80.46C154.19,79.85 148.08,77.48 144.28,73.34C142.79,71.73 141.65,69.84 140.84,67.69C139.59,64.3 139.38,60.74 140.24,57.38Z" style="fill:white;fill-rule:nonzero;"/>
        <path d="M156.06,44.45C150.11,49.02 147.32,56.09 148.69,63.44C150.15,71.14 155.74,77.28 163.99,80.32C152.06,78.11 145.6,70.38 144.44,63.18C143.44,56.89 146.07,48.91 156.05,44.45L156.06,44.45Z" style="fill:white;fill-rule:nonzero;"/>
        <path d="M159.88,77.49L177.47,77.49C177.58,77.55 177.7,77.6 177.82,77.64C181.17,78.99 184.96,80 189.03,80.6L167.48,80.6C164.69,79.88 162.13,78.84 159.88,77.49Z" style="fill:white;fill-rule:nonzero;"/>
        <path d="M155.28,73.98L171.01,73.98C172.66,75.16 174.54,76.22 176.59,77.11L159.25,77.11C157.78,76.21 156.46,75.15 155.28,73.98Z" style="fill:white;fill-rule:nonzero;"/>
        <path d="M60.63,80.61L60.63,77.5L123.18,77.5C125.2,78.97 127.65,80 130.57,80.61L60.63,80.61Z" style="fill:white;fill-rule:nonzero;"/>
        <path d="M60.63,77.11L60.63,73.98L119.67,73.98C120.49,75.18 121.49,76.22 122.65,77.11L60.63,77.11Z" style="fill:white;fill-rule:nonzero;"/>
        <path d="M117.67,56.87C119.48,50.12 124.04,45.79 130.92,44.24C122.13,48.6 119.2,57.37 120.27,64.57C121.22,70.88 125.48,77.98 134.61,80.49C125.05,79.66 119.47,75.32 117.54,67.25C116.73,63.8 116.77,60.21 117.68,56.86L117.67,56.87Z" style="fill:white;fill-rule:nonzero;"/>
        <path d="M131.04,44.65C125.71,49.27 123.06,56.75 124.2,64.33C124.71,67.8 125.97,70.93 127.88,73.6L127.9,73.65L127.9,73.67C127.95,73.76 128.01,73.84 128.07,73.91L128.09,73.93C130.05,76.66 132.69,78.89 135.81,80.4C126.14,78.22 121.67,70.95 120.7,64.54C119.65,57.5 122.51,48.92 131.03,44.66L131.04,44.65Z" style="fill:white;fill-rule:nonzero;"/>
        <path d="M129.07,73.98L143.71,73.98C144.83,75.18 146.13,76.21 147.6,77.11L132.07,77.11C130.95,76.17 129.95,75.13 129.07,73.98Z" style="fill:white;fill-rule:nonzero;"/>
        <path d="M132.55,77.49L148.29,77.49C150.85,78.93 153.92,79.96 157.54,80.6L138.1,80.6C136.06,79.83 134.19,78.79 132.55,77.49Z" style="fill:white;fill-rule:nonzero;"/>
        <path d="M103.04,63.73C87.69,57.53 73.46,50.83 60.63,43.51L110.95,43.51C100.88,48.19 98.56,56.67 103.04,63.73ZM84.69,47.91L71.84,45.93L84.26,49.4L84.68,47.91L84.69,47.91ZM92.73,45.7C87.73,45.3 85.03,52.04 89.71,54.08C87.8,50.72 89.27,47.71 92.73,45.7ZM100.35,46.76C95.26,47.63 92.72,54.55 97.31,57.33C95.36,53.31 97.03,49.77 100.35,46.76Z" style="fill:white;fill-rule:nonzero;"/>
    </g>
    <g transform="matrix(1,0,0,1,-61,-25)">
        <path d="M330.14,28.69C327.67,29.33 325.72,30.36 324.46,31.76L324.42,31.81L320.63,31.81L320.63,28.7L330.14,28.7L330.14,28.69Z" style="fill:white;fill-rule:nonzero;"/>
        <path d="M324.07,32.18C323.33,33.12 322.9,34.19 322.83,35.31L320.64,35.31L320.64,32.18L324.08,32.18L324.07,32.18Z" style="fill:white;fill-rule:nonzero;"/>
        <path d="M478.83,50.99C478.83,65.01 465.9,66.53 460.34,66.53C452.11,66.53 447.65,62.08 447.13,58.92C446.92,57.72 447.25,56.79 448.06,56.28C447.71,57.42 448.13,58.69 449.27,59.89C451.36,62.07 455.48,63.71 459.87,63.71C461.61,63.71 463.4,63.45 465.13,62.87C469.17,61.49 475.75,57.82 474.34,48.86C472.41,38.5 460.02,31.8 442.77,31.8L337.89,31.8C334.43,31.8 330.8,33.53 330.34,35.31L323.69,35.31C323.78,34.19 324.27,33.15 325.13,32.23C327.2,29.94 331.34,28.69 336.78,28.69L442.74,28.69C450.62,28.69 457.92,29.95 463.83,32.34C466.34,33.35 468.6,34.57 470.53,35.96L470.57,35.99C475.97,39.87 478.82,45.06 478.82,50.99L478.83,50.99Z" style="fill:white;fill-rule:nonzero;"/>
        <path d="M464.97,62.5C459.09,64.53 452.42,62.59 449.6,59.65C448.53,58.51 448.14,57.38 448.51,56.35C449.65,58.56 453,60.22 457.13,60.54C461.5,60.91 467.04,59.65 469.57,55.11C470.96,52.62 470.89,49.54 469.4,46.64C465.72,39.55 455.77,35.32 442.76,35.32L330.79,35.32C331.28,33.86 334.49,32.19 337.9,32.19L442.78,32.19C459.8,32.19 472.03,38.76 473.93,48.93C475.28,57.63 468.89,61.17 464.98,62.51L464.97,62.5Z" style="fill:white;fill-rule:nonzero;"/>
        <path d="M501.8,51.91C500.06,58.72 494.73,63.25 486.32,65.1C494.74,61.2 499.29,53.96 498.01,46.05C496.87,38.98 490.71,31.38 479.34,28.84C487.85,29.45 493.96,31.82 497.76,35.96C499.25,37.57 500.39,39.46 501.2,41.61C502.45,45 502.66,48.56 501.8,51.92L501.8,51.91Z" style="fill:white;fill-rule:nonzero;"/>
        <path d="M485.97,64.85C491.92,60.28 494.71,53.21 493.34,45.86C491.88,38.16 486.29,32.02 478.04,28.98C489.97,31.19 496.43,38.92 497.59,46.12C498.59,52.41 495.96,60.39 485.97,64.85Z" style="fill:white;fill-rule:nonzero;"/>
        <path d="M482.16,31.8L464.57,31.8C464.47,31.74 464.34,31.69 464.22,31.65C460.87,30.3 457.08,29.29 453.01,28.69L474.56,28.69C477.35,29.41 479.91,30.45 482.16,31.8Z" style="fill:white;fill-rule:nonzero;"/>
        <path d="M486.75,35.31L471.02,35.31C469.37,34.13 467.49,33.07 465.44,32.18L482.78,32.18C484.25,33.09 485.57,34.14 486.75,35.31Z" style="fill:white;fill-rule:nonzero;"/>
        <path d="M581.41,28.69L581.41,31.8L518.86,31.8C516.84,30.33 514.39,29.3 511.47,28.69L581.41,28.69Z" style="fill:white;fill-rule:nonzero;"/>
        <path d="M581.41,32.18L581.41,35.31L522.37,35.31C521.54,34.11 520.54,33.07 519.39,32.18L581.42,32.18L581.41,32.18Z" style="fill:white;fill-rule:nonzero;"/>
        <path d="M524.36,52.42C522.55,59.17 517.99,63.5 511.11,65.05C519.9,60.69 522.83,51.92 521.76,44.72C520.81,38.42 516.55,31.31 507.42,28.79C516.98,29.62 522.56,33.96 524.49,42.03C525.3,45.48 525.26,49.07 524.35,52.42L524.36,52.42Z" style="fill:white;fill-rule:nonzero;"/>
        <path d="M510.99,64.65C516.32,60.03 518.97,52.55 517.83,44.97C517.32,41.5 516.06,38.37 514.15,35.7L514.13,35.65C514.08,35.54 514.02,35.47 513.96,35.39L513.94,35.39C511.97,32.64 509.34,30.42 506.22,28.9C515.89,31.08 520.36,38.35 521.33,44.76C522.38,51.8 519.52,60.38 511,64.64L510.99,64.65Z" style="fill:white;fill-rule:nonzero;"/>
        <path d="M512.96,35.31L498.33,35.31C497.21,34.11 495.91,33.08 494.43,32.18L509.96,32.18C511.08,33.12 512.08,34.16 512.96,35.31Z" style="fill:white;fill-rule:nonzero;"/>
        <path d="M509.48,31.8L493.74,31.8C491.18,30.36 488.11,29.33 484.49,28.69L503.93,28.69C505.97,29.46 507.84,30.5 509.47,31.8L509.48,31.8Z" style="fill:white;fill-rule:nonzero;"/>
        <path d="M581.41,65.79L531.09,65.79C541.16,61.11 543.48,52.61 539,45.57C554.35,51.77 568.58,58.47 581.41,65.79ZM544.74,51.97C546.69,55.99 545.02,59.53 541.7,62.54C546.79,61.67 549.33,54.73 544.74,51.97ZM552.34,55.21C554.25,58.59 552.78,61.58 549.32,63.59C554.32,64 557.02,57.27 552.34,55.21ZM557.36,61.39L570.2,63.37L557.78,59.9L557.36,61.39Z" style="fill:white;fill-rule:nonzero;"/>
        <path d="M571.9,80.61C574.37,79.97 576.32,78.94 577.59,77.54L577.62,77.49L581.41,77.49L581.41,80.6L571.9,80.6L571.9,80.61Z" style="fill:white;fill-rule:nonzero;"/>
        <path d="M577.97,77.11C578.71,76.17 579.15,75.1 579.21,73.98L581.4,73.98L581.4,77.11L577.96,77.11L577.97,77.11Z" style="fill:white;fill-rule:nonzero;"/>
        <path d="M423.21,58.3C423.21,44.28 436.14,42.76 441.7,42.76C449.93,42.76 454.39,47.21 454.91,50.37C455.12,51.57 454.79,52.5 453.98,53.01C454.33,51.87 453.91,50.6 452.77,49.4C450.68,47.22 446.56,45.58 442.17,45.58C440.43,45.58 438.64,45.84 436.91,46.42C432.87,47.8 426.29,51.47 427.7,60.43C429.63,70.79 442.02,77.49 459.27,77.49L564.15,77.49C567.61,77.49 571.24,75.76 571.69,73.98L578.34,73.98C578.25,75.1 577.76,76.14 576.9,77.06C574.83,79.35 570.69,80.6 565.25,80.6L459.28,80.6C451.4,80.6 444.1,79.34 438.19,76.95C435.68,75.94 433.42,74.73 431.49,73.33L431.45,73.3C426.05,69.42 423.2,64.23 423.2,58.3L423.21,58.3Z" style="fill:white;fill-rule:nonzero;"/>
        <path d="M437.07,46.79C442.95,44.77 449.62,46.7 452.44,49.64C453.51,50.78 453.9,51.91 453.53,52.94C452.39,50.73 449.04,49.07 444.91,48.75C440.54,48.38 435,49.64 432.47,54.18C431.08,56.67 431.15,59.75 432.65,62.65C436.33,69.74 446.28,73.97 459.29,73.97L571.26,73.97C570.77,75.43 567.56,77.1 564.15,77.1L459.27,77.1C442.25,77.1 430.02,70.53 428.12,60.36C426.77,51.66 433.16,48.12 437.07,46.78L437.07,46.79Z" style="fill:white;fill-rule:nonzero;"/>
        <path d="M400.24,57.38C401.98,50.57 407.31,46.04 415.72,44.19C407.3,48.09 402.75,55.33 404.03,63.25C405.17,70.32 411.33,77.92 422.7,80.46C414.19,79.85 408.08,77.48 404.28,73.34C402.79,71.73 401.65,69.84 400.84,67.69C399.59,64.3 399.38,60.74 400.24,57.38Z" style="fill:white;fill-rule:nonzero;"/>
        <path d="M416.06,44.45C410.11,49.02 407.32,56.09 408.69,63.44C410.15,71.14 415.74,77.28 423.99,80.32C412.06,78.11 405.6,70.38 404.44,63.18C403.44,56.89 406.07,48.91 416.05,44.45L416.06,44.45Z" style="fill:white;fill-rule:nonzero;"/>
        <path d="M419.88,77.49L437.47,77.49C437.58,77.55 437.7,77.6 437.82,77.64C441.17,78.99 444.96,80 449.03,80.6L427.48,80.6C424.69,79.88 422.13,78.84 419.88,77.49Z" style="fill:white;fill-rule:nonzero;"/>
        <path d="M415.28,73.98L431.01,73.98C432.66,75.16 434.54,76.22 436.59,77.11L419.25,77.11C417.78,76.21 416.46,75.15 415.28,73.98Z" style="fill:white;fill-rule:nonzero;"/>
        <path d="M320.63,80.61L320.63,77.5L383.18,77.5C385.2,78.97 387.65,80 390.57,80.61L320.63,80.61Z" style="fill:white;fill-rule:nonzero;"/>
        <path d="M320.63,77.11L320.63,73.98L379.67,73.98C380.49,75.18 381.49,76.22 382.65,77.11L320.62,77.11L320.63,77.11Z" style="fill:white;fill-rule:nonzero;"/>
        <path d="M377.67,56.87C379.48,50.12 384.04,45.79 390.92,44.24C382.13,48.6 379.2,57.37 380.27,64.57C381.22,70.88 385.48,77.98 394.61,80.49C385.05,79.66 379.47,75.32 377.54,67.25C376.73,63.8 376.77,60.21 377.68,56.86L377.67,56.87Z" style="fill:white;fill-rule:nonzero;"/>
        <path d="M391.04,44.65C385.71,49.27 383.06,56.75 384.2,64.33C384.71,67.8 385.97,70.93 387.88,73.6L387.9,73.65L387.9,73.67C387.95,73.76 388.01,73.84 388.07,73.91L388.09,73.93C390.05,76.66 392.69,78.89 395.81,80.4C386.14,78.22 381.67,70.95 380.7,64.54C379.65,57.5 382.51,48.92 391.03,44.66L391.04,44.65Z" style="fill:white;fill-rule:nonzero;"/>
        <path d="M389.07,73.98L403.71,73.98C404.83,75.18 406.13,76.21 407.6,77.11L392.07,77.11C390.95,76.17 389.95,75.13 389.07,73.98Z" style="fill:white;fill-rule:nonzero;"/>
        <path d="M392.55,77.49L408.29,77.49C410.85,78.93 413.92,79.96 417.54,80.6L398.1,80.6C396.06,79.83 394.19,78.79 392.55,77.49Z" style="fill:white;fill-rule:nonzero;"/>
        <path d="M363.04,63.73C347.69,57.53 333.46,50.83 320.63,43.51L370.95,43.51C360.88,48.19 358.56,56.67 363.04,63.73ZM344.69,47.91L331.84,45.93L344.26,49.4L344.68,47.91L344.69,47.91ZM352.73,45.7C347.73,45.3 345.03,52.04 349.71,54.08C347.8,50.72 349.27,47.71 352.73,45.7ZM360.35,46.76C355.26,47.63 352.72,54.55 357.31,57.33C355.36,53.31 357.03,49.77 360.35,46.76Z" style="fill:white;fill-rule:nonzero;"/>
    </g>
    <g transform="matrix(1,0,0,1,-61,-25)">
        <path d="M590.1,28.69C587.63,29.33 585.68,30.36 584.42,31.76L584.38,31.81L580.59,31.81L580.59,28.7L590.1,28.7L590.1,28.69Z" style="fill:white;fill-rule:nonzero;"/>
        <path d="M584.03,32.18C583.29,33.12 582.86,34.19 582.79,35.31L580.6,35.31L580.6,32.18L584.04,32.18L584.03,32.18Z" style="fill:white;fill-rule:nonzero;"/>
        <path d="M738.79,50.99C738.79,65.01 725.86,66.53 720.3,66.53C712.07,66.53 707.61,62.08 707.09,58.92C706.88,57.72 707.21,56.79 708.02,56.28C707.67,57.42 708.09,58.69 709.23,59.89C711.32,62.07 715.44,63.71 719.83,63.71C721.57,63.71 723.36,63.45 725.09,62.87C729.13,61.49 735.71,57.82 734.3,48.86C732.37,38.5 719.98,31.8 702.73,31.8L597.85,31.8C594.39,31.8 590.76,33.53 590.3,35.31L583.65,35.31C583.74,34.19 584.23,33.15 585.09,32.23C587.16,29.94 591.3,28.69 596.74,28.69L702.7,28.69C710.58,28.69 717.88,29.95 723.79,32.34C726.3,33.35 728.56,34.57 730.49,35.96L730.53,35.99C735.93,39.87 738.78,45.06 738.78,50.99L738.79,50.99Z" style="fill:white;fill-rule:nonzero;"/>
        <path d="M724.93,62.5C719.05,64.53 712.38,62.59 709.56,59.65C708.49,58.51 708.1,57.38 708.47,56.35C709.61,58.56 712.96,60.22 717.09,60.54C721.46,60.91 727,59.65 729.53,55.11C730.92,52.62 730.85,49.54 729.36,46.64C725.68,39.55 715.73,35.32 702.72,35.32L590.75,35.32C591.24,33.86 594.45,32.19 597.86,32.19L702.74,32.19C719.76,32.19 731.99,38.76 733.89,48.93C735.24,57.63 728.85,61.17 724.94,62.51L724.93,62.5Z" style="fill:white;fill-rule:nonzero;"/>
        <path d="M761.76,51.91C760.02,58.72 754.69,63.25 746.28,65.1C754.7,61.2 759.25,53.96 757.97,46.05C756.83,38.98 750.67,31.38 739.3,28.84C747.81,29.45 753.92,31.82 757.72,35.96C759.21,37.57 760.35,39.46 761.16,41.61C762.41,45 762.62,48.56 761.76,51.92L761.76,51.91Z" style="fill:white;fill-rule:nonzero;"/>
        <path d="M745.93,64.85C751.88,60.28 754.67,53.21 753.3,45.86C751.84,38.16 746.25,32.02 738,28.98C749.93,31.19 756.39,38.92 757.55,46.12C758.55,52.41 755.92,60.39 745.93,64.85Z" style="fill:white;fill-rule:nonzero;"/>
        <path d="M742.12,31.8L724.53,31.8C724.43,31.74 724.3,31.69 724.18,31.65C720.83,30.3 717.04,29.29 712.97,28.69L734.52,28.69C737.31,29.41 739.87,30.45 742.12,31.8Z" style="fill:white;fill-rule:nonzero;"/>
        <path d="M746.72,35.31L730.99,35.31C729.34,34.13 727.46,33.07 725.41,32.18L742.75,32.18C744.22,33.09 745.54,34.14 746.72,35.31Z" style="fill:white;fill-rule:nonzero;"/>
        <path d="M841.37,28.69L841.37,31.8L778.82,31.8C776.8,30.33 774.35,29.3 771.43,28.69L841.37,28.69Z" style="fill:white;fill-rule:nonzero;"/>
        <path d="M841.37,32.18L841.37,35.31L782.33,35.31C781.5,34.11 780.5,33.07 779.35,32.18L841.38,32.18L841.37,32.18Z" style="fill:white;fill-rule:nonzero;"/>
        <path d="M784.33,52.42C782.52,59.17 777.96,63.5 771.08,65.05C779.87,60.69 782.8,51.92 781.73,44.72C780.78,38.42 776.52,31.31 767.39,28.79C776.95,29.62 782.53,33.96 784.46,42.03C785.27,45.48 785.23,49.07 784.32,52.42L784.33,52.42Z" style="fill:white;fill-rule:nonzero;"/>
        <path d="M770.96,64.65C776.29,60.03 778.94,52.55 777.8,44.97C777.29,41.5 776.03,38.37 774.12,35.7L774.1,35.65C774.05,35.54 773.99,35.47 773.93,35.39L773.91,35.39C771.94,32.64 769.31,30.42 766.19,28.9C775.86,31.08 780.33,38.35 781.3,44.76C782.35,51.8 779.49,60.38 770.97,64.64L770.96,64.65Z" style="fill:white;fill-rule:nonzero;"/>
        <path d="M772.92,35.31L758.29,35.31C757.17,34.11 755.87,33.08 754.39,32.18L769.92,32.18C771.04,33.12 772.04,34.16 772.92,35.31Z" style="fill:white;fill-rule:nonzero;"/>
        <path d="M769.45,31.8L753.71,31.8C751.15,30.36 748.08,29.33 744.46,28.69L763.9,28.69C765.94,29.46 767.81,30.5 769.44,31.8L769.45,31.8Z" style="fill:white;fill-rule:nonzero;"/>
        <path d="M841.37,65.79L791.05,65.79C801.12,61.11 803.44,52.61 798.96,45.57C814.31,51.77 828.54,58.47 841.37,65.79ZM804.7,51.97C806.65,55.99 804.98,59.53 801.66,62.54C806.75,61.67 809.29,54.73 804.7,51.97ZM812.3,55.21C814.21,58.59 812.74,61.58 809.28,63.59C814.28,64 816.98,57.27 812.3,55.21ZM817.32,61.39L830.16,63.37L817.74,59.9L817.32,61.39Z" style="fill:white;fill-rule:nonzero;"/>
        <path d="M831.86,80.61C834.33,79.97 836.28,78.94 837.55,77.54L837.58,77.49L841.37,77.49L841.37,80.6L831.86,80.6L831.86,80.61Z" style="fill:white;fill-rule:nonzero;"/>
        <path d="M837.93,77.11C838.67,76.17 839.11,75.1 839.17,73.98L841.36,73.98L841.36,77.11L837.92,77.11L837.93,77.11Z" style="fill:white;fill-rule:nonzero;"/>
        <path d="M683.17,58.3C683.17,44.28 696.1,42.76 701.66,42.76C709.89,42.76 714.35,47.21 714.87,50.37C715.08,51.57 714.75,52.5 713.94,53.01C714.29,51.87 713.87,50.6 712.73,49.4C710.64,47.22 706.52,45.58 702.13,45.58C700.39,45.58 698.6,45.84 696.87,46.42C692.83,47.8 686.25,51.47 687.66,60.43C689.59,70.79 701.98,77.49 719.23,77.49L824.11,77.49C827.57,77.49 831.2,75.76 831.65,73.98L838.3,73.98C838.21,75.1 837.72,76.14 836.86,77.06C834.79,79.35 830.65,80.6 825.21,80.6L719.24,80.6C711.36,80.6 704.06,79.34 698.15,76.95C695.64,75.94 693.38,74.73 691.45,73.33L691.41,73.3C686.01,69.42 683.16,64.23 683.16,58.3L683.17,58.3Z" style="fill:white;fill-rule:nonzero;"/>
        <path d="M697.03,46.79C702.91,44.77 709.58,46.7 712.4,49.64C713.47,50.78 713.86,51.91 713.49,52.94C712.35,50.73 709,49.07 704.87,48.75C700.5,48.38 694.96,49.64 692.43,54.18C691.04,56.67 691.11,59.75 692.61,62.65C696.29,69.74 706.24,73.97 719.25,73.97L831.22,73.97C830.73,75.43 827.52,77.1 824.11,77.1L719.23,77.1C702.21,77.1 689.98,70.53 688.08,60.36C686.73,51.66 693.12,48.12 697.03,46.78L697.03,46.79Z" style="fill:white;fill-rule:nonzero;"/>
        <path d="M660.2,57.38C661.94,50.57 667.27,46.04 675.68,44.19C667.26,48.09 662.71,55.33 663.99,63.25C665.13,70.32 671.29,77.92 682.66,80.46C674.15,79.85 668.04,77.48 664.24,73.34C662.75,71.73 661.61,69.84 660.8,67.69C659.55,64.3 659.34,60.74 660.2,57.38Z" style="fill:white;fill-rule:nonzero;"/>
        <path d="M676.03,44.45C670.08,49.02 667.29,56.09 668.66,63.44C670.12,71.14 675.71,77.28 683.96,80.32C672.03,78.11 665.57,70.38 664.41,63.18C663.41,56.89 666.04,48.91 676.02,44.45L676.03,44.45Z" style="fill:white;fill-rule:nonzero;"/>
        <path d="M679.85,77.49L697.44,77.49C697.55,77.55 697.67,77.6 697.79,77.64C701.14,78.99 704.93,80 709,80.6L687.45,80.6C684.66,79.88 682.1,78.84 679.85,77.49Z" style="fill:white;fill-rule:nonzero;"/>
        <path d="M675.25,73.98L690.98,73.98C692.63,75.16 694.51,76.22 696.56,77.11L679.22,77.11C677.75,76.21 676.43,75.15 675.25,73.98Z" style="fill:white;fill-rule:nonzero;"/>
        <path d="M580.59,80.61L580.59,77.5L643.14,77.5C645.16,78.97 647.61,80 650.53,80.61L580.59,80.61Z" style="fill:white;fill-rule:nonzero;"/>
        <path d="M580.59,77.11L580.59,73.98L639.63,73.98C640.45,75.18 641.45,76.22 642.61,77.11L580.58,77.11L580.59,77.11Z" style="fill:white;fill-rule:nonzero;"/>
        <path d="M637.64,56.87C639.45,50.12 644.01,45.79 650.89,44.24C642.1,48.6 639.17,57.37 640.24,64.57C641.19,70.88 645.45,77.98 654.58,80.49C645.02,79.66 639.44,75.32 637.51,67.25C636.7,63.8 636.74,60.21 637.65,56.86L637.64,56.87Z" style="fill:white;fill-rule:nonzero;"/>
        <path d="M651.01,44.65C645.68,49.27 643.03,56.75 644.17,64.33C644.68,67.8 645.94,70.93 647.85,73.6L647.87,73.65L647.87,73.67C647.92,73.76 647.98,73.84 648.04,73.91L648.06,73.93C650.02,76.66 652.66,78.89 655.78,80.4C646.11,78.22 641.64,70.95 640.67,64.54C639.62,57.5 642.48,48.92 651,44.66L651.01,44.65Z" style="fill:white;fill-rule:nonzero;"/>
        <path d="M649.03,73.98L663.67,73.98C664.79,75.18 666.09,76.21 667.56,77.11L652.03,77.11C650.91,76.17 649.91,75.13 649.03,73.98Z" style="fill:white;fill-rule:nonzero;"/>
        <path d="M652.52,77.49L668.26,77.49C670.82,78.93 673.89,79.96 677.51,80.6L658.07,80.6C656.03,79.83 654.16,78.79 652.52,77.49Z" style="fill:white;fill-rule:nonzero;"/>
        <path d="M623,63.73C607.65,57.53 593.42,50.83 580.59,43.51L630.91,43.51C620.84,48.19 618.52,56.67 623,63.73ZM604.65,47.91L591.8,45.93L604.22,49.4L604.64,47.91L604.65,47.91ZM612.69,45.7C607.69,45.3 604.99,52.04 609.67,54.08C607.76,50.72 609.23,47.71 612.69,45.7ZM620.31,46.76C615.22,47.63 612.68,54.55 617.27,57.33C615.32,53.31 616.99,49.77 620.31,46.76Z" style="fill:white;fill-rule:nonzero;"/>
    </g>
</svg>
